<?xml version="1.0" standalone="no"?>
<!DOCTYPE svg PUBLIC "-//W3C//DTD SVG 20010904//EN"
 "http://www.w3.org/TR/2001/REC-SVG-20010904/DTD/svg10.dtd">
<svg version="1.0" xmlns="http://www.w3.org/2000/svg"
 width="295.000000pt" height="109.000000pt" viewBox="0 0 295.000000 109.000000"
 preserveAspectRatio="xMidYMid meet">

<g transform="translate(0.000000,109.000000) scale(0.100000,-0.100000)"
fill="#000000" stroke="none">
<path d="M106 781 c-102 -103 -102 -91 2 -195 l70 -69 56 7 c31 4 58 11 61 16
6 10 -24 50 -83 112 -51 53 -55 40 35 144 29 34 49 64 46 68 -3 3 -27 6 -52 6
-45 0 -49 -3 -135 -89z m148 54 c-6 -15 -35 -35 -51 -35 -4 0 -1 5 7 11 11 8
6 9 -20 5 l-35 -6 40 20 c49 24 66 25 59 5z m-66 -74 c3 -9 -1 -11 -15 -7 -11
4 -32 2 -47 -3 -14 -6 -26 -7 -26 -2 0 11 49 30 69 28 8 -1 16 -8 19 -16z
m-88 -51 c-14 -11 -29 -20 -34 -20 -5 0 -7 -2 -4 -5 3 -3 17 -1 32 4 17 7 33
7 48 0 23 -10 23 -10 -1 -5 -13 3 -36 -1 -52 -9 -24 -13 -28 -13 -34 3 -7 19
27 52 54 52 12 0 10 -5 -9 -20z m67 -64 c-6 -8 -19 -11 -27 -9 -13 4 -13 3 -1
-5 10 -7 21 -7 33 -1 10 6 23 7 28 4 11 -7 -33 -55 -51 -55 -10 1 -9 4 4 14
14 11 15 15 4 19 -8 3 -19 1 -25 -5 -6 -6 -12 -6 -16 1 -4 6 -3 11 2 11 5 0 9
7 9 15 0 18 -9 19 -24 4 -7 -7 -13 -7 -17 -1 -7 11 29 27 42 18 4 -2 14 -1 22
4 20 12 32 2 17 -14z m55 -54 c-7 -2 -12 -11 -12 -19 0 -13 3 -13 15 -3 17 14
31 8 21 -8 -3 -6 -23 -10 -43 -10 -35 0 -36 1 -18 14 10 8 15 14 11 14 -5 0
-3 7 4 15 7 8 17 12 23 8 8 -5 7 -8 -1 -11z"/>
<path d="M368 851 c0 -3 -2 -72 -2 -153 -1 -146 -1 -148 21 -148 20 0 22 6 25
58 3 50 6 57 25 60 17 2 29 -7 50 -38 47 -70 69 -93 81 -86 14 8 -39 110 -70
136 l-22 18 26 -3 c37 -4 59 24 60 75 1 66 -25 84 -117 86 -41 1 -76 -1 -77
-5z m69 -17 c-3 -3 -12 -4 -19 -1 -8 3 -5 6 6 6 11 1 17 -2 13 -5z m59 -3 c-3
-5 -15 -7 -26 -4 -28 7 -25 13 6 13 14 0 23 -4 20 -9z m42 -8 c11 -24 14 -83
4 -83 -4 0 -8 12 -7 28 0 15 -5 33 -12 40 -7 7 -13 18 -13 23 0 15 19 10 28
-8z m-28 -34 c21 -39 9 -63 -37 -73 -61 -13 -71 -5 -71 48 l1 46 48 0 c38 0
51 -4 59 -21z m-123 -11 c-3 -8 -6 -5 -6 6 -1 11 2 17 5 13 3 -3 4 -12 1 -19z
m153 -178 c11 -22 18 -40 15 -40 -6 0 -45 62 -45 73 0 16 11 5 30 -33z m-140
-9 c0 -11 -4 -23 -10 -26 -6 -4 -10 5 -10 19 0 14 5 26 10 26 6 0 10 -9 10
-19z"/>
<path d="M1646 848 c-4 -13 -21 -141 -32 -239 -5 -46 -3 -57 10 -62 22 -9 32
16 40 93 14 132 13 132 58 50 45 -82 48 -82 88 10 13 30 27 59 31 64 4 4 10
-27 14 -70 4 -44 8 -92 9 -109 3 -23 9 -31 26 -33 22 -4 23 -3 16 75 -4 43
-13 112 -20 153 -17 101 -32 103 -83 11 -21 -39 -40 -71 -43 -71 -3 0 -20 27
-38 60 -33 61 -69 93 -76 68z m218 -24 c10 -26 7 -56 -5 -52 -7 2 -13 18 -14
36 -3 34 9 43 19 16z m-184 -14 c0 -5 -2 -10 -4 -10 -3 0 -8 5 -11 10 -3 6 -1
10 4 10 6 0 11 -4 11 -10z m-18 -60 c-2 -16 -6 -30 -8 -30 -2 0 -4 14 -4 30 0
17 4 30 8 30 5 0 7 -13 4 -30z m138 -33 c-11 -25 -25 -49 -29 -52 -13 -7 -20
17 -9 30 5 5 18 25 29 44 28 47 33 33 9 -22z m-148 -43 c-3 -22 -8 -32 -14
-26 -10 10 -1 62 11 62 4 0 5 -16 3 -36z m-2 -53 c0 -6 -4 -13 -10 -16 -5 -3
-10 1 -10 9 0 9 5 16 10 16 6 0 10 -4 10 -9z m250 -36 c0 -8 -4 -15 -10 -15
-5 0 -10 7 -10 15 0 8 5 15 10 15 6 0 10 -7 10 -15z m-260 -11 c0 -8 -5 -12
-10 -9 -6 4 -8 11 -5 16 9 14 15 11 15 -7z"/>
<path d="M2220 840 c0 -13 7 -20 20 -20 13 0 20 7 20 20 0 13 -7 20 -20 20
-13 0 -20 -7 -20 -20z m30 0 c0 -5 -4 -10 -10 -10 -5 0 -10 5 -10 10 0 6 5 10
10 10 6 0 10 -4 10 -10z"/>
<path d="M2637 854 c-3 -3 23 -40 58 -81 l65 -76 -43 -49 c-77 -89 -89 -107
-82 -118 3 -5 35 -10 69 -10 l63 0 72 76 c40 41 71 79 69 84 -2 5 -41 47 -87
94 -81 84 -85 86 -131 86 -25 0 -49 -3 -53 -6z m86 -25 c43 -12 50 -28 10 -22
-22 4 -25 2 -13 -6 19 -13 5 -14 -19 -1 -19 10 -36 40 -23 40 4 0 24 -5 45
-11z m76 -70 c17 -6 31 -15 31 -20 0 -5 -16 -2 -36 6 -44 18 -47 18 -38 3 4
-7 3 -8 -5 -4 -12 8 -6 26 8 26 4 0 22 -5 40 -11z m61 -57 c14 -11 19 -23 15
-34 -6 -16 -10 -16 -34 -3 -16 8 -38 11 -49 8 -12 -3 -22 -1 -22 4 0 11 40 10
80 -1 22 -6 23 -5 7 6 -52 36 -53 37 -36 38 9 0 27 -8 39 -18z m-16 -63 c8 -9
5 -10 -14 -6 -14 4 -31 2 -39 -3 -13 -7 -41 9 -41 24 0 10 83 -3 94 -15z m-79
-29 c0 -8 4 -18 10 -22 5 -4 6 -10 2 -14 -9 -9 -38 16 -31 27 3 5 -2 9 -10 9
-9 0 -16 5 -16 11 0 6 10 9 23 7 12 -2 22 -10 22 -18z m50 0 c3 -5 -1 -10 -9
-10 -8 0 -18 5 -21 10 -3 6 1 10 9 10 8 0 18 -4 21 -10z m-86 -23 c6 -8 8 -17
4 -20 -3 -4 -1 -7 5 -7 7 0 12 -4 12 -9 0 -5 -15 -8 -32 -7 -51 5 -53 5 -40
18 8 8 15 8 25 -1 12 -9 16 -8 21 4 3 9 0 15 -9 15 -8 0 -15 5 -15 10 0 14 16
12 29 -3z"/>
<path d="M660 757 c-30 -15 -55 -85 -46 -124 12 -44 59 -83 103 -83 58 0 83
10 83 32 0 15 -5 18 -20 13 -44 -14 -83 -8 -102 15 -30 37 -23 45 32 42 78 -6
100 3 100 39 0 63 -83 100 -150 66z m6 -30 c-22 -22 -24 -33 -17 -115 1 -7 16
-19 34 -27 17 -8 25 -14 16 -15 -9 0 -27 8 -39 18 -42 34 -31 162 15 162 10 0
7 -7 -9 -23z m119 7 c21 -22 16 -58 -10 -61 -14 -1 -15 0 -3 3 26 8 17 42 -17
59 -26 12 -27 15 -8 15 12 0 29 -7 38 -16z m-27 -16 c21 -21 13 -28 -36 -28
-54 0 -67 7 -51 27 14 16 71 17 87 1z"/>
<path d="M928 755 c-17 -10 -29 -11 -33 -5 -3 5 -12 10 -19 10 -9 0 -15 -25
-19 -82 -8 -105 -3 -128 30 -128 l25 0 -7 74 c-6 69 -5 75 15 86 55 30 90 -9
90 -101 0 -58 15 -80 39 -56 12 12 13 106 2 146 -13 48 -80 78 -123 56z m93
-38 c20 -24 25 -47 9 -47 -5 0 -10 6 -10 13 0 23 -17 38 -56 53 l-39 15 39 -6
c22 -4 47 -16 57 -28z m-115 11 c4 4 3 0 -3 -8 -14 -19 -21 -129 -9 -133 5 -2
6 -9 2 -15 -17 -27 -26 4 -26 85 0 70 2 83 13 74 8 -6 18 -7 23 -3z m135 -135
c-9 -38 -9 -38 -10 17 0 40 2 50 9 38 6 -10 7 -31 1 -55z"/>
<path d="M1137 763 c-4 -3 -7 -14 -7 -24 0 -15 8 -17 42 -16 32 2 43 -2 46
-14 2 -12 -9 -19 -41 -27 -47 -12 -60 -23 -71 -59 -15 -49 84 -99 122 -61 9 9
15 9 24 0 16 -16 48 -15 48 2 0 8 -7 16 -15 20 -11 4 -15 23 -15 80 0 66 -3
77 -22 90 -22 16 -99 22 -111 9z m38 -13 c-3 -5 -14 -10 -23 -10 -15 0 -15 2
-2 10 20 13 33 13 25 0z m75 -20 c0 -5 -5 -10 -11 -10 -5 0 -7 5 -4 10 3 6 8
10 11 10 2 0 4 -4 4 -10z m10 -69 c0 -17 -4 -33 -10 -36 -5 -3 -9 9 -8 30 2
42 18 48 18 6z m-36 -17 c3 -9 6 -22 6 -29 0 -15 -48 -34 -67 -28 -21 7 -15
41 9 57 29 20 44 20 52 0z"/>
<path d="M1447 763 c-4 -4 -26 -7 -50 -7 l-42 -1 0 -100 0 -100 29 -3 28 -4
-7 71 c-8 81 1 101 45 101 39 0 50 -19 57 -99 6 -76 26 -101 43 -55 22 56 3
155 -33 178 -30 19 -62 28 -70 19z m43 -24 c25 -6 61 -69 40 -69 -6 0 -10 6
-10 13 0 23 -17 38 -56 53 -34 13 -19 14 26 3z m-84 -11 c4 4 2 -1 -5 -11 -9
-10 -13 -38 -12 -67 1 -28 -3 -50 -8 -50 -12 0 -17 33 -13 93 3 37 7 45 16 37
7 -5 17 -6 22 -2z m136 -90 c4 -30 -2 -78 -11 -78 -3 0 -6 23 -6 50 0 51 11
69 17 28z m-152 -63 c0 -8 -4 -15 -10 -15 -5 0 -10 7 -10 15 0 8 5 15 10 15 6
0 10 -7 10 -15z"/>
<path d="M1997 763 c-4 -3 -7 -14 -7 -24 0 -15 8 -17 42 -16 33 2 43 -2 46
-15 2 -12 -5 -19 -25 -23 -58 -12 -78 -29 -81 -67 -2 -28 2 -40 20 -52 26 -18
70 -21 98 -6 13 7 21 7 25 0 3 -5 15 -10 26 -10 22 0 26 28 4 36 -11 5 -14 22
-13 76 2 63 0 72 -21 89 -23 19 -100 27 -114 12z m43 -13 c-8 -5 -22 -10 -30
-10 -13 0 -13 1 0 10 8 5 22 10 30 10 13 0 13 -1 0 -10z m70 -20 c0 -5 -5 -10
-11 -10 -5 0 -7 5 -4 10 3 6 8 10 11 10 2 0 4 -4 4 -10z m10 -69 c0 -17 -4
-33 -10 -36 -5 -3 -9 9 -8 30 2 42 18 48 18 6z m-32 -32 c3 -21 -2 -29 -25
-36 -53 -18 -71 9 -32 48 27 27 53 21 57 -12z"/>
<path d="M2217 763 c-11 -10 -8 -159 3 -187 5 -14 16 -26 23 -26 18 0 31 173
16 202 -10 18 -30 24 -42 11z m31 -37 c-1 -21 -5 -32 -13 -30 -13 5 -8 64 6
64 5 0 8 -15 7 -34z m-1 -86 c-5 -31 -17 -36 -17 -7 0 15 4 27 10 27 5 0 9 -9
7 -20z m3 -55 c0 -8 -4 -15 -10 -15 -5 0 -10 7 -10 15 0 8 5 15 10 15 6 0 10
-7 10 -15z"/>
<path d="M2340 755 c-19 -22 -4 -34 39 -28 29 4 39 1 44 -11 7 -18 -19 -36
-52 -36 -28 0 -61 -35 -61 -65 0 -48 75 -84 119 -56 9 6 21 5 31 -1 19 -12 50
-5 50 11 0 5 -9 13 -21 16 -19 6 -20 12 -14 68 6 54 4 65 -15 90 -17 22 -29
27 -65 27 -25 0 -47 -6 -55 -15z m40 -5 c-8 -5 -19 -10 -25 -10 -5 0 -3 5 5
10 8 5 20 10 25 10 6 0 3 -5 -5 -10z m65 -11 c11 -16 1 -19 -13 -3 -7 8 -8 14
-3 14 5 0 13 -5 16 -11z m16 -94 c-6 -19 -10 -23 -11 -12 -2 9 -3 23 -4 30 -3
18 5 30 15 20 5 -5 5 -22 0 -38z m-33 -18 c3 -22 -2 -29 -24 -37 -22 -9 -31
-8 -43 5 -15 15 -13 18 13 41 34 30 50 27 54 -9z m-8 -51 c0 -3 -4 -8 -10 -11
-5 -3 -10 -1 -10 4 0 6 5 11 10 11 6 0 10 -2 10 -4z"/>
<path d="M2556 593 c-14 -15 -5 -43 14 -43 13 0 20 7 20 19 0 19 -23 35 -34
24z"/>
<path d="M1923 463 c-46 -9 -53 -36 -53 -195 0 -133 2 -150 19 -167 30 -30 63
-32 374 -29 l289 3 19 24 c17 20 19 40 19 171 0 131 -2 151 -19 171 l-19 24
-304 1 c-166 1 -313 0 -325 -3z m169 -112 c21 -23 28 -42 28 -71 0 -81 -41
-120 -125 -120 l-45 0 0 116 0 116 57 -4 c48 -4 61 -10 85 -37z m218 19 c0
-17 -7 -20 -50 -20 -46 0 -50 -2 -50 -24 0 -22 5 -25 42 -28 31 -2 44 -8 46
-20 3 -15 -4 -18 -42 -18 -44 0 -46 -1 -46 -30 0 -29 1 -30 50 -30 43 0 50 -3
50 -20 0 -18 -7 -20 -75 -20 l-75 0 0 115 0 115 75 0 c68 0 75 -2 75 -20z m91
-52 c12 -40 25 -77 29 -81 4 -4 17 28 30 73 20 71 25 80 46 80 13 0 24 -3 24
-7 0 -5 -16 -57 -36 -116 -34 -102 -37 -108 -62 -105 -22 3 -29 15 -63 108
-21 58 -38 108 -38 113 -1 4 10 7 24 7 22 0 27 -8 46 -72z"/>
<path d="M1990 275 l0 -75 30 0 c35 0 50 23 50 79 0 45 -20 71 -56 71 -23 0
-24 -2 -24 -75z"/>
</g>
</svg>
