<?xml version="1.0" standalone="no"?>
<!DOCTYPE svg PUBLIC "-//W3C//DTD SVG 20010904//EN"
 "http://www.w3.org/TR/2001/REC-SVG-20010904/DTD/svg10.dtd">
<svg version="1.0" xmlns="http://www.w3.org/2000/svg"
 width="20.000000pt" height="20.000000pt" viewBox="0 0 600.000000 600.000000"
 preserveAspectRatio="xMidYMid meet">

<g transform="translate(0.000000,600.000000) scale(0.100000,-0.100000)"
fill="#ffff" stroke="none">
<path d="M2751 5989 c-909 -75 -1739 -566 -2248 -1329 -668 -1002 -668 -2318
0 -3320 318 -478 776 -863 1289 -1085 954 -413 2021 -318 2878 255 613 410
1065 1053 1239 1763 254 1032 -46 2108 -794 2852 -623 620 -1487 936 -2364
864z m632 -373 c339 -55 643 -160 920 -318 417 -239 756 -578 995 -995 163
-285 271 -605 324 -958 18 -121 18 -569 0 -690 -53 -353 -161 -673 -324 -958
-154 -269 -338 -492 -574 -696 -387 -336 -845 -543 -1379 -623 -121 -18 -569
-18 -690 0 -534 80 -992 287 -1379 623 -495 428 -797 986 -898 1654 -18 121
-18 569 0 690 88 586 329 1082 726 1494 407 422 981 711 1551 780 50 6 104 13
120 15 74 10 515 -3 608 -18z"/>
<path d="M2370 5033 c-8 -3 -87 -47 -174 -97 -109 -62 -165 -100 -177 -121
-40 -64 -39 -67 257 -581 152 -263 286 -489 297 -502 31 -33 88 -46 131 -28
63 26 311 174 335 200 14 15 25 41 28 68 4 41 -7 63 -267 513 -149 259 -278
480 -286 493 -31 47 -97 72 -144 55z"/>
<path d="M1837 4619 c-213 -133 -308 -242 -353 -405 -21 -78 -21 -303 0 -449
141 -965 960 -2273 1693 -2704 194 -114 374 -127 581 -42 99 41 204 101 200
115 -2 6 -128 228 -281 493 l-278 481 -47 -21 c-72 -34 -215 -31 -300 5 -97
40 -167 86 -253 167 -227 210 -417 558 -474 866 -23 120 -17 298 12 372 25 64
68 123 115 161 l36 28 -280 485 c-154 266 -282 487 -286 490 -4 4 -42 -15 -85
-42z"/>
<path d="M3667 2403 c-151 -88 -169 -102 -188 -140 -16 -33 -18 -49 -11 -75
15 -55 540 -960 578 -995 58 -56 89 -50 286 63 252 143 251 138 69 455 -396
690 -429 744 -461 767 -59 40 -88 32 -273 -75z"/>
</g>
</svg>
