<?xml version="1.0" standalone="no"?>
<!DOCTYPE svg PUBLIC "-//W3C//DTD SVG 20010904//EN"
 "http://www.w3.org/TR/2001/REC-SVG-20010904/DTD/svg10.dtd">
<svg version="1.0" xmlns="http://www.w3.org/2000/svg"
 width="20.000000pt" height="20.000000pt" viewBox="0 0 240.000000 240.000000"
 preserveAspectRatio="xMidYMid meet">

<g transform="translate(0.000000,240.000000) scale(0.100000,-0.100000)"
fill="#ffff" stroke="none">
<path d="M996 2384 c-249 -45 -471 -166 -652 -355 -99 -104 -152 -181 -215
-313 -151 -316 -152 -689 -4 -1004 l46 -99 -82 -301 c-45 -166 -80 -304 -78
-307 3 -2 143 32 312 76 l307 81 92 -40 c165 -70 315 -102 483 -102 305 0 594
116 816 327 246 234 374 533 372 873 -1 313 -112 585 -327 809 -186 193 -405
311 -660 356 -109 19 -303 18 -410 -1z m412 -209 c396 -84 698 -399 768 -798
21 -118 14 -299 -15 -412 -25 -96 -96 -247 -155 -329 -125 -175 -333 -320
-537 -375 -240 -66 -479 -42 -706 70 l-102 50 -177 -46 c-97 -25 -178 -44
-181 -41 -3 3 15 82 41 176 l47 171 -61 122 c-88 178 -104 246 -104 442 0 119
4 178 17 229 132 525 645 852 1165 741z"/>
<path d="M732 1746 c-34 -19 -88 -90 -109 -144 -27 -70 -24 -199 6 -276 35
-89 135 -229 245 -344 161 -167 269 -238 464 -306 178 -62 305 -45 405 52 63
61 89 188 45 216 -59 38 -269 127 -285 121 -10 -3 -42 -37 -72 -75 -29 -38
-62 -72 -72 -75 -26 -9 -180 73 -257 136 -66 55 -178 194 -188 235 -5 19 2 33
30 65 20 22 44 55 53 74 16 33 15 35 -37 162 -73 179 -68 173 -143 173 -34 -1
-73 -7 -85 -14z"/>
</g>
</svg>
